<svg version="1.1" xmlns="http://www.w3.org/2000/svg" xmlns:xlink="http://www.w3.org/1999/xlink" 
width="17.00002" height="17.29563" viewBox="0,0,80.00002,76.29563"><defs><linearGradient x1="241.63637" y1="144.4728" x2="241.63637" y2="220.76843" gradientUnits="userSpaceOnUse" id="color-1"><stop offset="0" stop-color="#00fff1"/><stop offset="1" stop-color="#66c9ff"/></linearGradient></defs><g transform="translate(-201.63636,-144.4728)"><g data-paper-data="{&quot;isPaintingLayer&quot;:true}" fill="url(#color-1)" fill-rule="nonzero" stroke="none" stroke-width="0" stroke-linecap="butt" stroke-linejoin="miter" stroke-miterlimit="10" stroke-dasharray="" stroke-dashoffset="0" style="mix-blend-mode: normal"><path d="M201.63638,198.5v-47.33334c0,0 1.86694,-6.40059 8,-6.5c11.05441,-0.17919 43.60626,-0.37065 63.73138,0.10667c5.50394,0.5394 8.26862,6.39333 8.26862,6.39333v47.33334c0,0 -2.05668,5.89471 -7.72195,6.13917c-2.09503,0.09041 -18.34514,-0.03235 -18.34514,-0.03235l0.01371,9.89482c0,0 10.19001,-0.76259 10.04903,3.28708c-0.12794,3.67511 -10.24365,2.87373 -10.24365,2.87373c0,0 -28.00632,0.23648 -28.00676,0.00293c-0.00069,-0.36959 -10.00294,1.13966 -9.88089,-2.87359c-0.37917,-4.19017 9.85416,-3.24026 9.85416,-3.24026l-0.00201,-9.86554c0,0 -17.17904,-0.18598 -18.71652,-0.18598c-4.66905,0 -7,-6 -7,-6z"/></g></g></svg>