<svg version="1.1" xmlns="http://www.w3.org/2000/svg" xmlns:xlink="http://www.w3.org/1999/xlink" 
width="15.85715" height="17.30035" viewBox="0,0,63.85715,80.30035"><defs><linearGradient x1="238.95715" y1="139.33229" x2="238.95715" y2="219.63264" gradientUnits="userSpaceOnUse" id="color-1"><stop offset="0" stop-color="#ff6666"/><stop offset="1" stop-color="#ffb966"/></linearGradient></defs><g transform="translate(-207.02857,-139.33227)"><g data-paper-data="{&quot;isPaintingLayer&quot;:true}" fill-rule="nonzero" stroke="none" stroke-width="0" stroke-linecap="butt" stroke-linejoin="miter" stroke-miterlimit="10" stroke-dasharray="" stroke-dashoffset="0" style="mix-blend-mode: normal"><path d="M207.02857,214.37501v-69.5c0,0 3.5491,-5.28572 6,-5.28572c6.42308,0 37.29836,-0.60871 51.25379,0.04744c4.56241,0.21451 6.60336,5.23828 6.60336,5.23828v69.5c0,0 -4.79194,5.14285 -6.42857,5.14285c-6.02618,0 -38.86662,0.19142 -50.70575,0.07984c-2.78421,-0.02624 -6.72282,-5.22269 -6.72282,-5.22269z" fill="url(#color-1)"/><path d="M214,155.5v-5.25h38.5v5.25z" fill="#5d2525"/><path d="M214.00758,169.34832v-5.25h27.66666v5.25z" fill="#5d2525"/><path d="M214,182.50254v-5.25h38.5v5.25z" fill="#5d2525"/></g></g></svg>