<svg version="1.1" xmlns="http://www.w3.org/2000/svg" xmlns:xlink="http://www.w3.org/1999/xlink" 
width="17.07273" height="17.14724" viewBox="0,0,56.07273,68.14724"><defs><linearGradient x1="240.56776" y1="143.54165" x2="240.56776" y2="194.68431" gradientUnits="userSpaceOnUse" id="color-1"><stop offset="0" stop-color="#fbff00"/><stop offset="1" stop-color="#ffb066"/></linearGradient></defs><g transform="translate(-212.36339,-143.54165)"><g data-paper-data="{&quot;isPaintingLayer&quot;:true}" fill-rule="nonzero" stroke="none" stroke-width="0" stroke-linecap="butt" stroke-linejoin="miter" stroke-miterlimit="10" stroke-dasharray="" stroke-dashoffset="0" style="mix-blend-mode: normal"><path d="M228.52273,167.54167v-18.41667c0,0 -0.08778,-3.78515 1.57823,-4.59109c2.086,-1.00911 9.96344,-0.99224 9.96344,-0.99224c0,0 9.25942,-0.00613 11.08154,1.17063c1.64057,1.05951 1.29346,4.4127 1.29346,4.4127v18.25l8.38756,0.17143c0,0 3.34614,2.90858 1.69759,5.13714c-3.50545,4.73879 -21.88356,22.00074 -21.88356,22.00074c0,0 -18.44841,-16.45713 -21.96773,-21.13212c-1.58727,-2.1085 0.97384,-6.01778 0.97384,-6.01778z" fill="url(#color-1)"/><path d="M215.36339,211.68889c0,0 -3,-2.94218 -3,-4.32727c0,-1.2792 3.18182,-3.69091 3.18182,-3.69091h49.98182c0,0 2.90909,2.52043 2.90909,3.78182c0,1.39739 -2.90909,4.23636 -2.90909,4.23636z" fill="#ffb265"/></g></g></svg>