<svg version="1.1" xmlns="http://www.w3.org/2000/svg" 
xmlns:xlink="http://www.w3.org/1999/xlink" 
width="26.48155" 
height="23.01836" 
viewBox="0,0,31.48155,25.01836">
<g transform="translate(-224.25758,-167.64133)">
<g data-paper-data="{&quot;isPaintingLayer&quot;:true}" fill-rule="nonzero" stroke-width="1.5" stroke-linecap="butt" stroke-linejoin="miter" stroke-miterlimit="10" stroke-dasharray="" stroke-dashoffset="0" style="mix-blend-mode: normal"><g><path d="M225.75275,183.32266l3.83227,-12.88054c0,0 1.33271,-1.71387 2.58424,-1.92859c4.07361,-0.6989 12.50029,-0.37668 14.08384,-0.13107c3.17683,0.49273 3.87716,1.95494 3.87716,1.95494l4.04518,12.77582z" fill="#5b5b5b" stroke="#5b5b5b"/><path d="M226.87414,191.90969c0,0 -1.86656,-0.44129 -1.86656,-5.15045c0,-4.2561 1.86656,-5.00738 1.86656,-5.00738h25.1985c0,0 2.81766,0.34892 2.91649,4.72124c0.11666,5.16084 -2.91649,5.43658 -2.91649,5.43658z" fill="#3d3d46" stroke="#5b5b5b"/><path d="M228.19172,186.50803c0,-1.28751 1.04373,-2.33124 2.33124,-2.33124c1.28751,0 2.33124,1.04373 2.33124,2.33124c0,1.28751 -1.04373,2.33124 -2.33124,2.33124c-1.28751,0 -2.33124,-1.04373 -2.33124,-2.33124z" fill="#ff96fd" stroke="none"/></g></g></g></svg>