<svg version="1.1" 
xmlns="http://www.w3.org/2000/svg" 
xmlns:xlink="http://www.w3.org/1999/xlink" 
width="21.43818" 
height="21.62492" 
viewBox="0,0,78.43818,62.62492"><g transform="translate(-200.7767,-148.68754)"><g data-paper-data="{&quot;isPaintingLayer&quot;:true}" fill-rule="nonzero" stroke-width="1.5" stroke-linecap="butt" stroke-linejoin="miter" stroke-miterlimit="10" stroke-dasharray="" stroke-dashoffset="0" style="mix-blend-mode: normal"><path d="M203.43895,188.52656l9.83431,-33.05384c0,0 3.41998,-4.39811 6.63164,-4.94912c10.45363,-1.79351 32.07804,-0.96663 36.14173,-0.33635c8.15233,1.26444 9.94951,5.01674 9.94951,5.01674l10.38068,32.78511z" fill="#5b5b5b" stroke="#5b5b5b"/><path d="M206.31664,210.56246c0,0 -4.78994,-1.13243 -4.78994,-13.217c0,-10.92194 4.78994,-12.84986 4.78994,-12.84986h64.66399c0,0 7.23063,0.89539 7.48425,12.11557c0.29937,13.24367 -7.48425,13.95126 -7.48425,13.95126z" fill="#3d3d46" stroke="#5b5b5b"/><path d="M209.69779,196.70081c0,-3.30399 2.6784,-5.98239 5.98239,-5.98239c3.30399,0 5.98239,2.6784 5.98239,5.98239c0,3.30399 -2.6784,5.98239 -5.98239,5.98239c-3.30399,0 -5.98239,-2.6784 -5.98239,-5.98239z" fill="#ff96fd" stroke="none"/></g></g></svg>