<svg version="1.1" xmlns="http://www.w3.org/2000/svg" xmlns:xlink="http://www.w3.org/1999/xlink" 
width="17.00808" height="17.01734" viewBox="0,0,64.00808,70.01734"><defs><linearGradient x1="240" y1="144.99133" x2="240" y2="215.00867" gradientUnits="userSpaceOnUse" id="color-1"><stop offset="0" stop-color="#55f169"/><stop offset="1" stop-color="#72ff36"/></linearGradient></defs><g transform="translate(-208.41875,-144.99133)"><g data-paper-data="{&quot;isPaintingLayer&quot;:true}" fill="url(#color-1)" fill-rule="nonzero" stroke="none" stroke-width="0" stroke-linecap="butt" stroke-linejoin="miter" stroke-miterlimit="10" stroke-dasharray="" stroke-dashoffset="0" style="mix-blend-mode: normal"><path d="M208.42683,212.24455c0,0 -0.07788,-36.60647 0.25,-44.75c0.23983,-3.37766 26.9632,-22.07981 32,-22.5c3.45303,-0.28806 30.95204,18.88915 31.12828,23.39292c0.28769,7.35148 0.62172,40.60708 0.62172,40.60708c0,0 -1.6053,6.5236 -13.50475,5.9822c-11.10808,-0.50539 -11.24525,-3.9822 -11.24525,-3.9822c0,0 0.90346,-18.91435 -1.48413,-22.13107c-2.60438,-3.50879 -12.54423,-2.01379 -12.96271,0.34771c-1.37798,7.77609 -0.55317,23.03336 -0.55317,23.03336c0,0 -0.42734,2.31131 -13.5,2.75c-4.97061,0.16681 -10.75,-2.75 -10.75,-2.75z"/></g></g></svg>