<svg version="1.1" xmlns="http://www.w3.org/2000/svg" xmlns:xlink="http://www.w3.org/1999/xlink" 
width="17.85715" 
height="17.63368" 
viewBox="0,0,63.85715,62.63368"><defs><linearGradient x1="240" y1="148.68316" x2="240" y2="211.31684" gradientUnits="userSpaceOnUse" id="color-1"><stop offset="0" stop-color="#6866ff"/><stop offset="1" stop-color="#66c2ff"/></linearGradient></defs><g transform="translate(-208.07142,-148.68316)"><g data-paper-data="{&quot;isPaintingLayer&quot;:true}" fill-rule="nonzero" stroke="none" stroke-width="0" stroke-linecap="butt" stroke-linejoin="miter" stroke-miterlimit="10" stroke-dasharray="" stroke-dashoffset="0" style="mix-blend-mode: normal"><path d="M208.07143,207.21594v-54.20949c0,0 3.5491,-4.12282 6,-4.12282c6.42308,0 37.29836,-0.47479 51.25379,0.037c4.56241,0.16732 6.60336,4.08582 6.60336,4.08582v54.20949c0,0 -4.79194,4.01139 -6.42857,4.01139c-6.02618,0 -38.86662,0.14931 -50.70575,0.06227c-2.78421,-0.02047 -6.72282,-4.07366 -6.72282,-4.07366z" fill="url(#color-1)"/><path d="M214.5,202.60714v-13.39286l9.85714,-15.85714l13.42735,16.0529l11.57242,-6.60339l16.4288,6.40764v13.39286z" fill="#ffffff"/><path d="M245.92857,164.875c0,-4.61552 3.74162,-8.35714 8.35714,-8.35714c4.61552,0 8.35714,3.74162 8.35714,8.35714c0,4.61552 -3.74162,8.35714 -8.35714,8.35714c-4.61552,0 -8.35714,-3.74162 -8.35714,-8.35714z" fill="#ffffff"/></g></g></svg>