<svg version="1.1" xmlns="http://www.w3.org/2000/svg" xmlns:xlink="http://www.w3.org/1999/xlink" width="35" height="30" viewBox="0,0,37.75,32.9498"><defs><linearGradient x1="241.27294" y1="160.65975" x2="241.27294" y2="193.60956" gradientUnits="userSpaceOnUse" id="color-1"><stop offset="0" stop-color="#ffa966"/><stop offset="1" stop-color="#fffa66"/></linearGradient></defs><g transform="translate(-222.56072,-160.65977)"><g data-paper-data="{&quot;isPaintingLayer&quot;:true}" fill-rule="nonzero" stroke-linejoin="miter" stroke-miterlimit="10" stroke-dasharray="" stroke-dashoffset="0" style="mix-blend-mode: normal"><path d="M225.25716,181.19411c0,0 6.06011,-8.788 13.26972,-8.80835c5.27302,-0.01487 19.15885,4.9512 19.15885,4.9512" data-paper-data="{&quot;index&quot;:null}" fill="none" stroke="#4a0088" stroke-width="2" stroke-linecap="round"/><path d="M233.7143,193.55716c-4.32163,-1.53516 -0.4352,-13.6929 -0.4352,-13.6929c0,0 -8.78742,-2.92534 -8.27909,-6.22138c0.41643,-2.70014 10.74891,-2.72113 10.74891,-2.72113c0,0 0.74144,-9.97761 3.5501,-10.25507c2.94662,-0.29109 7.24054,8.72284 7.24054,8.72284c0,0 10.32454,-2.03749 10.97473,0.39622c0.74984,2.80673 -6.73496,6.54196 -6.73496,6.54196c0,0 7.26985,10.44063 4.73496,12.94376c-2.89344,2.85719 -12.95573,-6.31088 -12.95573,-6.31088c0,0 -6.25221,11.51735 -8.84427,10.59659z" fill="url(#color-1)" stroke="none" stroke-width="0" stroke-linecap="butt"/><path d="M258.1143,177.95715c0,0 -4.25654,7.66301 -17.71615,9.05835c-9.02303,1.26488 -15.14099,-5.34406 -15.14099,-5.34406" fill="none" stroke="#e200ff" stroke-width="2" stroke-linecap="round"/><path d="M227.06073,180.5893c0,1.27814 -1.00736,2.31428 -2.25,2.31428c-1.24264,0 -2.25,-1.03613 -2.25,-2.31428c0,-1.27814 1.00736,-2.31429 2.25,-2.31429c1.24264,0 2.25,1.03615 2.25,2.31429z" fill="#ffffff" stroke="none" stroke-width="0" stroke-linecap="butt"/><path d="M236.81073,186.8393c0,1.27814 -1.00736,2.31428 -2.25,2.31428c-1.24264,0 -2.25,-1.03613 -2.25,-2.31428c0,-1.27814 1.00736,-2.31429 2.25,-2.31429c1.24264,0 2.25,1.03615 2.25,2.31429z" fill="#80daff" stroke="none" stroke-width="0" stroke-linecap="butt"/><path d="M260.31073,177.4643c0,1.27814 -1.00736,2.31428 -2.25,2.31428c-1.24264,0 -2.25,-1.03613 -2.25,-2.31428c0,-1.27814 1.00736,-2.31429 2.25,-2.31429c1.24264,0 2.25,1.03615 2.25,2.31429z" fill="#80daff" stroke="none" stroke-width="0" stroke-linecap="butt"/><path d="M252.93573,184.4643c0,1.27814 -1.00736,2.31428 -2.25,2.31428c-1.24264,0 -2.25,-1.03613 -2.25,-2.31428c0,-1.27814 1.00736,-2.31429 2.25,-2.31429c1.24264,0 2.25,1.03615 2.25,2.31429z" fill="#ffffff" stroke="none" stroke-width="0" stroke-linecap="butt"/><path d="M228.84892,174.66252c0,0.68543 0.70979,2.24107 0.04341,2.24107c-0.66638,0 -1.5816,-2.05564 -1.5816,-2.74107c0,-0.68543 1.66522,-1.74108 2.3316,-1.74108c0.66638,0 -0.79341,1.55565 -0.79341,2.24108z" fill="#ffffff" stroke="none" stroke-width="0" stroke-linecap="butt"/></g></g></svg>